<?xml version="1.0" encoding="UTF-8" standalone="no"?>

<svg width="1000" height="1000" viewBox="45.6 48 120 120"
  xmlns="http://www.w3.org/2000/svg">
  <g id="icon">
    <rect width="166" height="175" x="0" y="0" fill="#774336" />
    <path id="centerLine" fill="#653931" d="m 107.81006,48.959033 c -7.76287,50.856555 -7.50337,140.182677 -0.52976,178.725467 6.42345,-39.13878 6.86343,-127.31514 0.52976,-178.725467 z" />
    <g id="mouth">
      <path style="fill:#520000;fill-opacity:1;stroke:none;stroke-width:1.5;stroke-linecap:butt;stroke-linejoin:miter;stroke-miterlimit:4;stroke-dasharray:none;stroke-opacity:1" d="m 53.999187,116.05853 c 7.41539,13.07308 13.719095,24.64267 13.363477,38.21954 l 10.022606,-8.68626 0.534541,10.15625 10.156241,-10.02261 3.474503,10.69078 9.888965,-11.22532 5.07812,10.42351 7.48355,-11.22532 8.81989,10.69078 2.13816,-9.62171 11.35895,8.01809 0.66818,-10.02261 9.2208,7.61719 c -2.44128,-13.71487 6.02305,-26.76293 12.58493,-39.0794 l -17.52942,14.8915 -1.60361,-13.89801 -11.22532,13.0962 -4.81085,-13.36348 -8.22722,12.55004 -8.57587,-13.3751 -8.157539,12.01549 -9.517141,-13.32858 -7.29758,14.68819 -9.807669,-12.8173 -5.078121,13.0962 z" id="path4535" />
      <ellipse style="opacity:1;fill:#410000;fill-opacity:1;stroke:none;stroke-width:0.43018" id="path1367" cx="106.91856" cy="135.43884" rx="19.411951" ry="8.7879877" />
      <path style="fill:#710000;fill-opacity:1;stroke:none;stroke-width:1.5;stroke-linecap:butt;stroke-linejoin:miter;stroke-miterlimit:4;stroke-dasharray:none;stroke-opacity:1" d="m 67.362665,154.27807 10.022606,-8.68626 0.534541,10.15625 10.156241,-10.02261 3.474503,10.69078 9.888964,-11.22532 5.07812,10.42351 7.48355,-11.22532 8.81989,10.69078 2.13816,-9.62171 11.35895,8.01809 0.66818,-10.02261 9.2208,7.61719 c -7.48796,-22.83651 -71.987532,-23.215 -78.844505,3.20723 z" id="path4535-5" />
    </g>
    <g id="eye1">
      <circle fill="#000" cx="64.957237" cy="92.004272" r="14.56619" />
      <ellipse fill="#fff" id="path4558" cx="-16.33116" cy="104.95877" rx="8.6862593" ry="5.3453903" transform="rotate(-43.419623)" />
      <ellipse fill="#fff" transform="rotate(-43.419623)" ry="3.3393476" rx="5.4264398" cy="120.21999" cx="-16.146742" />
    </g>
    <g id="eye2">
      <circle fill="#000" cx="146.70946" cy="90.400658" r="14.566191" />
      <ellipse fill="#fff" cx="44.150928" cy="159.98526" rx="8.6862593" ry="5.3453903" transform="rotate(-43.419623)" />
      <ellipse transform="rotate(-43.419623)" ry="3.3393474" rx="5.4264398" cy="175.24648" cx="44.335346" fill="#fff" />
    </g>
  </g>
</svg>
