<?xml version="1.0" standalone="no"?>
<!DOCTYPE svg PUBLIC "-//W3C//DTD SVG 20010904//EN"
 "http://www.w3.org/TR/2001/REC-SVG-20010904/DTD/svg10.dtd">
<svg version="1.0" xmlns="http://www.w3.org/2000/svg"
 width="700.000000pt" height="700.000000pt" viewBox="0 0 700.000000 700.000000"
 preserveAspectRatio="xMidYMid meet">
<metadata>
Created by potrace 1.14, written by Peter Selinger 2001-2017
</metadata>
<g transform="translate(0.000000,700.000000) scale(0.100000,-0.100000)"
fill="#000000" stroke="none">
<path d="M5795 5369 c-84 -12 -114 -19 -176 -40 -244 -84 -445 -288 -524 -529
-10 -30 -18 -56 -17 -57 0 -2 -6 -25 -13 -53 -18 -67 -17 -248 1 -335 57 -270
248 -503 503 -610 42 -18 90 -35 106 -39 29 -6 45 -9 110 -22 56 -11 209 -5
283 11 448 95 740 520 667 970 -54 332 -302 601 -630 685 -84 21 -231 30 -310
19z m106 -174 c45 -13 101 -59 121 -99 56 -109 21 -275 -89 -426 -41 -55 -149
-157 -208 -194 -178 -114 -362 -129 -458 -38 -42 39 -57 75 -64 145 -21 234
242 546 517 611 56 14 138 14 181 1z m547 -805 c137 -84 29 -351 -185 -457
-88 -44 -151 -50 -210 -22 -137 66 -68 306 127 436 94 63 205 81 268 43z"/>
<path d="M1108 5285 c-2 -1 -30 -5 -63 -8 -329 -31 -610 -253 -718 -568 -36
-104 -42 -147 -41 -289 0 -98 5 -142 23 -205 90 -321 335 -549 661 -615 94
-19 242 -19 325 0 28 6 57 13 65 15 42 9 143 53 205 89 77 45 227 187 269 254
69 110 119 237 134 340 4 26 6 99 5 162 -2 129 -29 242 -84 353 -128 254 -387
435 -663 463 -34 3 -73 7 -88 9 -15 1 -29 1 -30 0z m64 -201 c76 -39 103 -94
103 -209 0 -86 -2 -94 -43 -180 -36 -74 -89 -150 -147 -211 -38 -39 -137 -110
-196 -139 -286 -144 -513 -14 -445 255 23 89 50 143 113 227 111 147 290 263
433 280 25 3 46 6 48 8 7 6 105 -16 134 -31z m479 -773 c23 -2 78 -57 85 -86
41 -165 -172 -413 -362 -421 -112 -5 -169 51 -161 158 14 171 231 367 392 353
17 -2 37 -3 46 -4z"/>
<path d="M2326 2920 c-114 -231 -211 -420 -215 -419 -3 0 -76 93 -161 206 -85
113 -168 222 -185 243 -34 43 -78 100 -164 213 l-59 77 -20 -52 c-51 -135
-273 -702 -276 -705 -3 -3 -156 105 -166 117 -3 4 -12 10 -20 13 -8 4 -60 41
-115 82 -55 42 -134 100 -175 130 -41 30 -118 86 -170 124 -52 38 -96 68 -98
66 -2 -2 19 -43 47 -90 28 -48 51 -88 51 -90 0 -2 15 -30 34 -62 191 -331 390
-755 480 -1024 45 -134 98 -334 111 -419 4 -25 9 -54 11 -65 19 -91 31 -229
33 -373 l1 -93 79 68 c44 37 174 150 290 251 116 100 211 177 212 170 1 -7 2
-29 4 -48 1 -19 6 -91 9 -160 4 -69 9 -174 12 -235 4 -60 9 -113 13 -117 3 -4
135 121 293 278 159 156 290 284 292 284 3 0 48 -134 101 -298 54 -163 100
-301 104 -305 4 -4 68 61 141 145 73 84 138 158 144 163 6 6 40 44 76 85 95
110 120 138 172 194 l46 51 149 -302 148 -303 210 316 c116 174 213 321 218
328 5 8 12 5 22 -8 8 -11 25 -31 37 -45 13 -14 52 -62 88 -106 35 -44 67 -82
70 -85 3 -3 35 -41 70 -85 77 -95 86 -106 136 -165 22 -25 52 -61 67 -79 15
-19 30 -32 32 -30 2 3 31 125 64 273 33 147 61 270 63 271 2 2 149 -99 327
-225 179 -126 328 -227 332 -224 4 2 8 32 8 67 1 34 3 78 5 97 2 19 7 85 11
145 4 61 9 126 10 145 2 19 4 54 4 78 l1 43 34 -28 c57 -48 480 -396 495 -407
12 -9 13 -7 8 14 -29 103 -27 418 3 570 6 30 13 69 16 85 48 274 221 692 488
1179 42 76 76 141 76 143 0 2 20 38 43 81 105 186 110 196 83 175 -26 -20
-338 -284 -346 -292 -3 -4 -32 -28 -65 -56 -33 -27 -71 -60 -85 -72 -100 -87
-495 -420 -497 -419 -3 3 -11 57 -18 131 -3 33 -8 71 -10 85 -3 22 -9 74 -31
270 -3 25 -9 79 -14 120 -5 41 -12 100 -16 130 -6 53 -10 68 -17 59 -7 -9
-182 -214 -187 -219 -3 -3 -46 -52 -95 -110 -341 -400 -359 -420 -368 -405 -6
12 -250 688 -269 744 -6 19 -51 -48 -382 -557 -54 -83 -101 -152 -105 -152 -3
0 -71 103 -151 228 -79 125 -173 272 -209 327 -35 55 -81 126 -102 158 l-37
59 -17 -24 c-34 -45 -445 -653 -449 -663 -2 -6 -10 -4 -19 5 -12 12 -143 192
-247 340 -140 200 -295 410 -302 410 -2 0 -97 -189 -212 -420z"/>
</g>
</svg>
